<svg width="49" height="49" viewBox="0 0 49 49" fill="none" xmlns="http://www.w3.org/2000/svg">
<path d="M24.4997 44.9174C35.7755 44.9174 44.9163 40.804 44.9163 35.7299C44.9163 33.1438 42.542 30.8073 38.7207 29.1377C36.389 33.4167 32.8332 37.105 28.3166 39.0351C25.8889 40.0726 23.1105 40.0726 20.6827 39.0351C16.1662 37.105 12.6104 33.4167 10.2786 29.1377C6.45737 30.8073 4.08301 33.1438 4.08301 35.7299C4.08301 40.804 13.2239 44.9174 24.4997 44.9174Z" fill="url(#paint0_linear_195_125)"/>
<path fill-rule="evenodd" clip-rule="evenodd" d="M10.208 17.3842C10.208 10.0384 16.6066 4.0835 24.4997 4.0835C32.3927 4.0835 38.7913 10.0384 38.7913 17.3842C38.7913 24.6724 34.2299 33.1771 27.1131 36.2184C25.4541 36.9274 23.5452 36.9274 21.8862 36.2184C14.7694 33.1771 10.208 24.6724 10.208 17.3842ZM24.4997 22.4585C26.7548 22.4585 28.583 20.6303 28.583 18.3752C28.583 16.12 26.7548 14.2918 24.4997 14.2918C22.2445 14.2918 20.4163 16.12 20.4163 18.3752C20.4163 20.6303 22.2445 22.4585 24.4997 22.4585Z" fill="url(#paint1_linear_195_125)"/>
<defs>
<linearGradient id="paint0_linear_195_125" x1="4.08301" y1="37.0275" x2="53.3915" y2="40.1911" gradientUnits="userSpaceOnUse">
<stop stop-color="#3445E7"/>
<stop offset="0.461538" stop-color="#2F85EA"/>
<stop offset="1" stop-color="#07D6F3"/>
</linearGradient>
<linearGradient id="paint1_linear_195_125" x1="10.208" y1="20.4168" x2="44.8497" y2="21.1684" gradientUnits="userSpaceOnUse">
<stop stop-color="#3445E7"/>
<stop offset="0.461538" stop-color="#2F85EA"/>
<stop offset="1" stop-color="#07D6F3"/>
</linearGradient>
</defs>
</svg>
