<svg width="41" height="33" viewBox="0 0 41 33" fill="none" xmlns="http://www.w3.org/2000/svg">
<path fill-rule="evenodd" clip-rule="evenodd" d="M2.39196 2.39196C0 4.78392 0 8.63373 0 16.3333C0 24.0329 0 27.8827 2.39196 30.2747C4.78392 32.6667 8.63373 32.6667 16.3333 32.6667H24.5C32.1996 32.6667 36.0494 32.6667 38.4414 30.2747C40.8333 27.8827 40.8333 24.0329 40.8333 16.3333C40.8333 8.63373 40.8333 4.78392 38.4414 2.39196C36.0494 0 32.1996 0 24.5 0H16.3333C8.63373 0 4.78392 0 2.39196 2.39196ZM33.843 7.18638C34.3844 7.83606 34.2966 8.80161 33.6469 9.343L29.1625 13.0801C27.3528 14.5882 25.8861 15.8105 24.5915 16.6431C23.243 17.5104 21.9297 18.0583 20.4167 18.0583C18.9036 18.0583 17.5903 17.5104 16.2418 16.6431C14.9473 15.8105 13.4805 14.5882 11.6709 13.0801L7.18638 9.343C6.53671 8.80161 6.44893 7.83606 6.99033 7.18638C7.53172 6.53671 8.49727 6.44893 9.14695 6.99033L13.5547 10.6634C15.4595 12.2508 16.7819 13.3493 17.8984 14.0673C18.9792 14.7625 19.7121 14.9958 20.4167 14.9958C21.1212 14.9958 21.8541 14.7625 22.9349 14.0673C24.0514 13.3493 25.3738 12.2508 27.2786 10.6634L31.6864 6.99033C32.3361 6.44893 33.3016 6.53671 33.843 7.18638Z" fill="url(#paint0_linear_530_82)"/>
<defs>
<linearGradient id="paint0_linear_530_82" x1="2.75439e-07" y1="16.3333" x2="49.464" y2="17.8663" gradientUnits="userSpaceOnUse">
<stop stop-color="#3445E7"/>
<stop offset="0.461538" stop-color="#2F85EA"/>
<stop offset="1" stop-color="#07D6F3"/>
</linearGradient>
</defs>
</svg>
