<svg width="37" height="35" viewBox="0 0 37 35" fill="none" xmlns="http://www.w3.org/2000/svg">
<path d="M25.6355 22.2668L24.7056 23.1913C24.7056 23.1913 22.4953 25.3891 16.4622 19.3902C10.4291 13.3913 12.6394 11.1936 12.6394 11.1936L13.2249 10.6113C14.6675 9.17697 14.8035 6.87411 13.5449 5.19295L10.9704 1.75396C9.41266 -0.326837 6.40258 -0.60171 4.61713 1.17361L1.41253 4.36002C0.527217 5.2403 -0.0660443 6.38142 0.00589546 7.64728C0.189946 10.8858 1.65521 17.8537 9.83136 25.9834C18.5019 34.6047 26.6373 34.9473 29.9641 34.6372C31.0163 34.5391 31.9315 34.0031 32.669 33.2699L35.5692 30.3861C37.527 28.4394 36.975 25.1022 34.4701 23.7405L30.5695 21.62C28.9248 20.726 26.9209 20.9886 25.6355 22.2668Z" fill="url(#paint0_linear_530_19)"/>
<defs>
<linearGradient id="paint0_linear_530_19" x1="2.47895e-07" y1="17.3542" x2="44.5296" y2="18.5232" gradientUnits="userSpaceOnUse">
<stop stop-color="#3445E7"/>
<stop offset="0.461538" stop-color="#2F85EA"/>
<stop offset="1" stop-color="#07D6F3"/>
</linearGradient>
</defs>
</svg>
